<?xml version="1.0" encoding="UTF-8"?>
<svg xmlns="http://www.w3.org/2000/svg" viewBox="0 0 64 64" aria-hidden="true">
  <defs>
    <linearGradient id="g" x1="0" x2="1" y1="0" y2="1">
      <stop offset="0%" stop-color="#b0b0b0"/>
      <stop offset="50%" stop-color="#7a7a7a"/>
      <stop offset="100%" stop-color="#4a4a4a"/>
    </linearGradient>
    <filter id="bevel" x="-20%" y="-20%" width="140%" height="140%">
      <feGaussianBlur in="SourceAlpha" stdDeviation="1.2" result="blur"/>
      <feOffset in="blur" dx="0" dy="1" result="off"/>
      <feSpecularLighting in="blur" surfaceScale="1" specularConstant="0.6" specularExponent="20" result="spec">
        <fePointLight x="-50" y="-20" z="30"/>
      </feSpecularLighting>
      <feComposite in="spec" in2="SourceAlpha" operator="in" result="specIn"/>
      <feMerge>
        <feMergeNode in="specIn"/>
        <feMergeNode in="SourceGraphic"/>
      </feMerge>
    </filter>
  </defs>
  <g filter="url(#bevel)">
    <path d="M32 56s-18-12.8-25.2-20.7C1.6 25.8 9.4 12 20.6 12c6.2 0 9.2 4.1 11.4 6.8 2.2-2.7 5.2-6.8 11.4-6.8 11.2 0 19 13.8 13.8 23.3C50 43.2 32 56 32 56z" fill="url(#g)" stroke="#333" stroke-width="1.2"/>
    <path d="M20 20c-4 0-7 3-7 7 0 8 11 18 19 24 8-6 19-16 19-24 0-4-3-7-7-7-4 0-6.5 3.5-9 6-2.5-2.5-5-6-9-6s-6.5 3.5-9 6c-2.5-2.5-5-6-9-6z" fill="none" stroke="#222" stroke-opacity="0.25" stroke-width="1"/>
  </g>
</svg>
